<?xml version="1.0" encoding="UTF-8" standalone="no"?>
<svg
   xmlns:dc="http://purl.org/dc/elements/1.1/"
   xmlns:cc="http://creativecommons.org/ns#"
   xmlns:rdf="http://www.w3.org/1999/02/22-rdf-syntax-ns#"
   xmlns:svg="http://www.w3.org/2000/svg"
   xmlns="http://www.w3.org/2000/svg"
   xmlns:sodipodi="http://sodipodi.sourceforge.net/DTD/sodipodi-0.dtd"
   xmlns:inkscape="http://www.inkscape.org/namespaces/inkscape"
   version="1.0"
   width="800"
   height="480"
   viewBox="0 0 640 384"
   preserveAspectRatio="xMidYMid meet"
   id="svg2"
   inkscape:version="0.48.4 r9939"
   sodipodi:docname="gps.svg"
   inkscape:export-filename="/home/forest/projects/fgfs/icon-a5/Models/textures/cockpit/gps.png"
   inkscape:export-xdpi="90"
   inkscape:export-ydpi="90">
  <defs
     id="defs24">
    <filter
       inkscape:collect="always"
       id="filter4133"
       x="-0.12652192"
       width="1.2530438"
       y="-0.1141175"
       height="1.228235">
      <feGaussianBlur
         inkscape:collect="always"
         stdDeviation="63.121445"
         id="feGaussianBlur4135" />
    </filter>
  </defs>
  <sodipodi:namedview
     pagecolor="#ffffff"
     bordercolor="#666666"
     borderopacity="1"
     objecttolerance="10"
     gridtolerance="10"
     guidetolerance="10"
     inkscape:pageopacity="0"
     inkscape:pageshadow="2"
     inkscape:window-width="439"
     inkscape:window-height="415"
     id="namedview22"
     showgrid="true"
     inkscape:zoom="0.6675088"
     inkscape:cx="448.64838"
     inkscape:cy="206.38294"
     inkscape:window-x="262"
     inkscape:window-y="274"
     inkscape:window-maximized="0"
     inkscape:current-layer="g6"
     borderlayer="true">
    <inkscape:grid
       type="xygrid"
       id="grid3001"
       empspacing="5"
       visible="true"
       enabled="true"
       snapvisiblegridlinesonly="true" />
  </sodipodi:namedview>
  <metadata
     id="metadata4">
Created by potrace 1.11, written by Peter Selinger 2001-2013
<rdf:RDF>
  <cc:Work
     rdf:about="">
    <dc:format>image/svg+xml</dc:format>
    <dc:type
       rdf:resource="http://purl.org/dc/dcmitype/StillImage" />
    <dc:title></dc:title>
  </cc:Work>
</rdf:RDF>
</metadata>
  <g
     transform="matrix(0.1,0,0,-0.1,0,384)"
     id="g6"
     style="fill:#000000;stroke:none">
    <rect
       style="fill:#000000;fill-opacity:1;stroke:none"
       id="rect3809"
       width="6400"
       height="3840"
       x="0"
       y="-3840"
       transform="scale(1,-1)"
       rx="30.141123"
       ry="30.709322" />
    <g
       id="g4104"
       style="fill:#ffffff;fill-opacity:1;filter:url(#filter4133);opacity:0.5">
      <path
         d="m 3190.2125,2573.3558 c -11.3248,-27.1109 -28.1404,-313.6625 -22.6495,-379.5523 5.8339,-67.9487 28.4835,-133.8384 64.5169,-187.7169 21.2769,-31.9154 74.8123,-85.1076 109.4731,-108.7868 l 27.7972,-19.2178 -27.7972,28.1404 c -44.6129,44.2696 -64.1739,84.7644 -71.7237,149.2814 -4.4613,39.4652 -1.0295,78.244 12.0111,125.6022 17.502,65.2034 3.0886,188.7467 -35.6902,307.1422 -14.4135,43.9265 -28.4836,74.4691 -40.4948,88.5393 -8.5793,9.952 -10.2952,9.6089 -15.4429,-3.4317 z"
         id="path3322"
         style="fill:#ffffff;fill-opacity:1"
         inkscape:connector-curvature="0" />
      <path
         d="m 3167.563,2117.2754 c 0,-14.7566 -10.2953,-48.7309 -22.3065,-74.4691 -19.5609,-41.5243 -44.956,-70.0078 -89.2256,-100.2073 -25.0518,-17.1588 -49.0741,-27.7972 -100.2073,-44.2696 -47.015,-15.0997 -73.0964,-28.8268 -117.0228,-61.0853 -52.5059,-38.7788 -129.7205,-112.9048 -162.6653,-156.8312 -32.9448,-43.9265 -38.0925,-63.4875 -15.4429,-59.0262 25.0518,4.8044 281.7472,133.8384 329.7918,165.7538 86.4802,57.3103 144.1337,138.9861 166.7833,235.7616 7.2067,30.5426 15.4429,97.8051 12.3543,100.8936 -1.0295,1.0295 -2.059,-2.059 -2.059,-6.5203 z"
         id="path3324"
         style="fill:#ffffff;fill-opacity:1"
         inkscape:connector-curvature="0" />
      <path
         d="m 3229.3345,1883.9159 c -45.6423,-3.0885 -106.3844,-20.5905 -144.1337,-41.181 -10.2953,-5.8339 -15.7861,-9.2657 -12.0112,-7.893 47.0151,16.1292 98.1483,19.2178 141.0452,8.2362 54.565,-14.0701 95.4028,-38.4357 152.37,-91.6279 27.7972,-25.7381 41.5243,-35.0039 76.8713,-52.1627 69.6647,-33.9744 180.8536,-67.6056 250.175,-76.185 56.9672,-7.2066 71.3805,2.0591 42.8969,25.7382 -43.24,36.0335 -259.4406,175.7059 -306.4557,198.0124 -61.7717,29.513 -130.0635,42.2105 -200.7578,37.0628 z"
         id="path3326"
         style="fill:#ffffff;fill-opacity:1"
         inkscape:connector-curvature="0" />
      <path
         d="m 2602.0096,1361.946 1.0295,-103.9823 20.5906,0 20.5905,0 0,102.9527 0,102.9527 -21.6201,1.0295 -21.2769,1.0295 0.6864,-103.9821 z"
         id="path3328"
         inkscape:connector-curvature="0"
         style="fill:#ffffff;fill-opacity:1" />
      <path
         d="m 2735.5049,1459.4078 c -6.5203,-3.0886 -16.4724,-11.668 -22.3064,-18.8747 l -10.6385,-13.3838 -1.0295,-55.5945 c -1.7159,-75.4986 3.775,-93.3437 33.9744,-108.4434 12.3543,-6.5204 20.5905,-6.8635 143.7906,-6.8635 l 130.4067,0 0,20.5905 0,20.5905 -126.6318,0 c -110.8457,0 -127.6613,0.6864 -132.1226,5.4908 -7.893,7.8931 -7.893,108.1004 0,115.9934 4.4613,4.8045 21.2769,5.4908 132.1226,5.4908 l 126.6318,0 0,20.5905 0,20.5906 -131.0931,0 c -118.3956,0 -132.4657,-0.6864 -143.1042,-6.1772 z"
         id="path3330"
         inkscape:connector-curvature="0"
         style="fill:#ffffff;fill-opacity:1" />
      <path
         d="m 3100.3005,1459.0646 c -6.1771,-3.7749 -15.4429,-12.3543 -20.5905,-19.561 -9.9521,-12.6975 -9.9521,-13.727 -10.9816,-65.8897 -1.7159,-67.2624 0.3432,-79.9599 14.0702,-95.746 18.8746,-21.2769 20.2473,-21.62 152.3699,-21.62 117.3661,0 119.7683,0.3431 132.809,7.893 8.5794,4.8044 16.4724,13.3838 21.6201,22.6496 7.2066,14.0702 7.893,18.8746 7.893,74.1259 0,55.2513 -0.6864,60.0558 -7.893,74.1259 -5.1477,9.2658 -13.0407,17.8451 -21.6201,22.6496 -13.0407,7.5499 -15.4429,7.8931 -135.2112,7.8931 -113.9343,0 -122.5136,-0.3432 -132.4658,-6.5204 z m 249.1455,-41.5243 c 6.1771,-6.1771 6.8635,-11.3247 6.8635,-56.6239 0,-45.2992 -0.6864,-50.4468 -6.8635,-56.624 -6.5203,-6.5203 -11.3248,-6.8635 -115.6501,-6.8635 -85.4508,0.3432 -110.5026,1.3727 -114.9639,4.8045 -5.4908,4.1181 -6.1771,11.3248 -6.1771,59.7126 0,49.0741 0.6863,55.5943 6.1771,58.683 3.4318,2.4022 47.3582,3.7749 114.9639,3.7749 104.3253,0 109.1298,-0.3432 115.6501,-6.8636 z"
         id="path3332"
         inkscape:connector-curvature="0"
         style="fill:#ffffff;fill-opacity:1" />
      <path
         d="m 3459.2622,1365.3777 c 0,-55.2513 1.3727,-102.6095 3.0886,-105.0117 1.7159,-3.0886 8.5794,-4.1181 21.2768,-3.4318 l 18.5315,1.0295 1.0296,83.3917 0.6863,83.0485 119.7683,0 c 111.1889,0 119.7683,-0.3432 124.9159,-6.1772 5.1477,-5.4908 5.834,-16.4724 5.834,-84.078 l 0,-77.9008 20.5906,0 c 18.8746,0 20.5905,0.6863 22.6495,8.5793 1.0296,4.4613 1.3727,41.8675 0.6864,83.0485 -1.3727,83.7349 -2.7454,88.8825 -25.7382,106.3845 l -12.3544,9.6089 -150.654,1.0295 -150.3109,1.0295 0,-100.5504 z"
         id="path3334"
         inkscape:connector-curvature="0"
         style="fill:#ffffff;fill-opacity:1" />
    </g>
    <path
       d="m 3190.2125,2573.3558 c -11.3248,-27.1109 -28.1404,-313.6625 -22.6495,-379.5523 5.8339,-67.9487 28.4835,-133.8384 64.5169,-187.7169 21.2769,-31.9154 74.8123,-85.1076 109.4731,-108.7868 l 27.7972,-19.2178 -27.7972,28.1404 c -44.6129,44.2696 -64.1739,84.7644 -71.7237,149.2814 -4.4613,39.4652 -1.0295,78.244 12.0111,125.6022 17.502,65.2034 3.0886,188.7467 -35.6902,307.1422 -14.4135,43.9265 -28.4836,74.4691 -40.4948,88.5393 -8.5793,9.952 -10.2952,9.6089 -15.4429,-3.4317 z"
       id="path8"
       style="fill:#ff0000;fill-opacity:1"
       inkscape:connector-curvature="0" />
    <path
       d="m 3167.563,2117.2754 c 0,-14.7566 -10.2953,-48.7309 -22.3065,-74.4691 -19.5609,-41.5243 -44.956,-70.0078 -89.2256,-100.2073 -25.0518,-17.1588 -49.0741,-27.7972 -100.2073,-44.2696 -47.015,-15.0997 -73.0964,-28.8268 -117.0228,-61.0853 -52.5059,-38.7788 -129.7205,-112.9048 -162.6653,-156.8312 -32.9448,-43.9265 -38.0925,-63.4875 -15.4429,-59.0262 25.0518,4.8044 281.7472,133.8384 329.7918,165.7538 86.4802,57.3103 144.1337,138.9861 166.7833,235.7616 7.2067,30.5426 15.4429,97.8051 12.3543,100.8936 -1.0295,1.0295 -2.059,-2.059 -2.059,-6.5203 z"
       id="path10"
       style="fill:#ff0000;fill-opacity:1"
       inkscape:connector-curvature="0" />
    <path
       d="m 3229.3345,1883.9159 c -45.6423,-3.0885 -106.3844,-20.5905 -144.1337,-41.181 -10.2953,-5.8339 -15.7861,-9.2657 -12.0112,-7.893 47.0151,16.1292 98.1483,19.2178 141.0452,8.2362 54.565,-14.0701 95.4028,-38.4357 152.37,-91.6279 27.7972,-25.7381 41.5243,-35.0039 76.8713,-52.1627 69.6647,-33.9744 180.8536,-67.6056 250.175,-76.185 56.9672,-7.2066 71.3805,2.0591 42.8969,25.7382 -43.24,36.0335 -259.4406,175.7059 -306.4557,198.0124 -61.7717,29.513 -130.0635,42.2105 -200.7578,37.0628 z"
       id="path12"
       style="fill:#ff0000;fill-opacity:1"
       inkscape:connector-curvature="0" />
    <path
       d="m 2602.0096,1361.946 1.0295,-103.9823 20.5906,0 20.5905,0 0,102.9527 0,102.9527 -21.6201,1.0295 -21.2769,1.0295 0.6864,-103.9821 z"
       id="path14"
       inkscape:connector-curvature="0"
       style="fill:#ffffff;fill-opacity:1" />
    <path
       d="m 2735.5049,1459.4078 c -6.5203,-3.0886 -16.4724,-11.668 -22.3064,-18.8747 l -10.6385,-13.3838 -1.0295,-55.5945 c -1.7159,-75.4986 3.775,-93.3437 33.9744,-108.4434 12.3543,-6.5204 20.5905,-6.8635 143.7906,-6.8635 l 130.4067,0 0,20.5905 0,20.5905 -126.6318,0 c -110.8457,0 -127.6613,0.6864 -132.1226,5.4908 -7.893,7.8931 -7.893,108.1004 0,115.9934 4.4613,4.8045 21.2769,5.4908 132.1226,5.4908 l 126.6318,0 0,20.5905 0,20.5906 -131.0931,0 c -118.3956,0 -132.4657,-0.6864 -143.1042,-6.1772 z"
       id="path16"
       inkscape:connector-curvature="0"
       style="fill:#ffffff;fill-opacity:1" />
    <path
       d="m 3100.3005,1459.0646 c -6.1771,-3.7749 -15.4429,-12.3543 -20.5905,-19.561 -9.9521,-12.6975 -9.9521,-13.727 -10.9816,-65.8897 -1.7159,-67.2624 0.3432,-79.9599 14.0702,-95.746 18.8746,-21.2769 20.2473,-21.62 152.3699,-21.62 117.3661,0 119.7683,0.3431 132.809,7.893 8.5794,4.8044 16.4724,13.3838 21.6201,22.6496 7.2066,14.0702 7.893,18.8746 7.893,74.1259 0,55.2513 -0.6864,60.0558 -7.893,74.1259 -5.1477,9.2658 -13.0407,17.8451 -21.6201,22.6496 -13.0407,7.5499 -15.4429,7.8931 -135.2112,7.8931 -113.9343,0 -122.5136,-0.3432 -132.4658,-6.5204 z m 249.1455,-41.5243 c 6.1771,-6.1771 6.8635,-11.3247 6.8635,-56.6239 0,-45.2992 -0.6864,-50.4468 -6.8635,-56.624 -6.5203,-6.5203 -11.3248,-6.8635 -115.6501,-6.8635 -85.4508,0.3432 -110.5026,1.3727 -114.9639,4.8045 -5.4908,4.1181 -6.1771,11.3248 -6.1771,59.7126 0,49.0741 0.6863,55.5943 6.1771,58.683 3.4318,2.4022 47.3582,3.7749 114.9639,3.7749 104.3253,0 109.1298,-0.3432 115.6501,-6.8636 z"
       id="path18"
       inkscape:connector-curvature="0"
       style="fill:#ffffff;fill-opacity:1" />
    <path
       d="m 3459.2622,1365.3777 c 0,-55.2513 1.3727,-102.6095 3.0886,-105.0117 1.7159,-3.0886 8.5794,-4.1181 21.2768,-3.4318 l 18.5315,1.0295 1.0296,83.3917 0.6863,83.0485 119.7683,0 c 111.1889,0 119.7683,-0.3432 124.9159,-6.1772 5.1477,-5.4908 5.834,-16.4724 5.834,-84.078 l 0,-77.9008 20.5906,0 c 18.8746,0 20.5905,0.6863 22.6495,8.5793 1.0296,4.4613 1.3727,41.8675 0.6864,83.0485 -1.3727,83.7349 -2.7454,88.8825 -25.7382,106.3845 l -12.3544,9.6089 -150.654,1.0295 -150.3109,1.0295 0,-100.5504 z"
       id="path20"
       inkscape:connector-curvature="0"
       style="fill:#ffffff;fill-opacity:1" />
  </g>
</svg>
